<mxfile host="drawio-plugin" modified="2023-05-21T11:00:47.399Z" agent="5.0 (Windows NT 6.2; Win64; x64) AppleWebKit/537.36 (KHTML, like Gecko) Chrome/98.0.4758.102 Safari/537.36" etag="G82ef4P8Dob4TseAyPOd" version="20.5.3" type="embed"><diagram name="Page-1" id="2YBvvXClWsGukQMizWep"><mxGraphModel dx="1562" dy="448" grid="1" gridSize="10" guides="1" tooltips="1" connect="1" arrows="1" fold="1" page="1" pageScale="1" pageWidth="850" pageHeight="1100" math="0" shadow="0"><root><mxCell id="0"/><mxCell id="1" parent="0"/><mxCell id="aM9ryv3xv72pqoxQDRHE-1" value="c:Controller" style="shape=umlLifeline;perimeter=lifelinePerimeter;whiteSpace=wrap;html=1;container=0;dropTarget=0;collapsible=0;recursiveResize=0;outlineConnect=0;portConstraint=eastwest;newEdgeStyle={&quot;edgeStyle&quot;:&quot;elbowEdgeStyle&quot;,&quot;elbow&quot;:&quot;vertical&quot;,&quot;curved&quot;:0,&quot;rounded&quot;:0};" parent="1" vertex="1"><mxGeometry x="40" y="40" width="100" height="300" as="geometry"/></mxCell><mxCell id="aM9ryv3xv72pqoxQDRHE-2" value="" style="html=1;points=[];perimeter=orthogonalPerimeter;outlineConnect=0;targetShapes=umlLifeline;portConstraint=eastwest;newEdgeStyle={&quot;edgeStyle&quot;:&quot;elbowEdgeStyle&quot;,&quot;elbow&quot;:&quot;vertical&quot;,&quot;curved&quot;:0,&quot;rounded&quot;:0};" parent="aM9ryv3xv72pqoxQDRHE-1" vertex="1"><mxGeometry x="45" y="70" width="10" height="220" as="geometry"/></mxCell><mxCell id="aM9ryv3xv72pqoxQDRHE-3" value="update" style="html=1;verticalAlign=bottom;startArrow=oval;endArrow=block;startSize=8;edgeStyle=elbowEdgeStyle;elbow=vertical;curved=0;rounded=0;" parent="aM9ryv3xv72pqoxQDRHE-1" target="aM9ryv3xv72pqoxQDRHE-2" edge="1"><mxGeometry relative="1" as="geometry"><mxPoint x="-15" y="70" as="sourcePoint"/></mxGeometry></mxCell><mxCell id="aM9ryv3xv72pqoxQDRHE-5" value="g:GameView" style="shape=umlLifeline;perimeter=lifelinePerimeter;whiteSpace=wrap;html=1;container=0;dropTarget=0;collapsible=0;recursiveResize=0;outlineConnect=0;portConstraint=eastwest;newEdgeStyle={&quot;edgeStyle&quot;:&quot;elbowEdgeStyle&quot;,&quot;elbow&quot;:&quot;vertical&quot;,&quot;curved&quot;:0,&quot;rounded&quot;:0};" parent="1" vertex="1"><mxGeometry x="220" y="40" width="100" height="300" as="geometry"/></mxCell><mxCell id="aM9ryv3xv72pqoxQDRHE-6" value="" style="html=1;points=[];perimeter=orthogonalPerimeter;outlineConnect=0;targetShapes=umlLifeline;portConstraint=eastwest;newEdgeStyle={&quot;edgeStyle&quot;:&quot;elbowEdgeStyle&quot;,&quot;elbow&quot;:&quot;vertical&quot;,&quot;curved&quot;:0,&quot;rounded&quot;:0};" parent="aM9ryv3xv72pqoxQDRHE-5" vertex="1"><mxGeometry x="45" y="80" width="10" height="200" as="geometry"/></mxCell><mxCell id="aM9ryv3xv72pqoxQDRHE-7" value="update" style="html=1;verticalAlign=bottom;endArrow=block;edgeStyle=elbowEdgeStyle;elbow=vertical;curved=0;rounded=0;" parent="1" source="aM9ryv3xv72pqoxQDRHE-2" target="aM9ryv3xv72pqoxQDRHE-6" edge="1"><mxGeometry relative="1" as="geometry"><mxPoint x="195" y="130" as="sourcePoint"/><Array as="points"><mxPoint x="180" y="120"/></Array></mxGeometry></mxCell><mxCell id="aM9ryv3xv72pqoxQDRHE-8" value="" style="html=1;verticalAlign=bottom;endArrow=open;dashed=1;endSize=8;edgeStyle=elbowEdgeStyle;elbow=vertical;curved=0;rounded=0;" parent="1" source="aM9ryv3xv72pqoxQDRHE-6" target="aM9ryv3xv72pqoxQDRHE-2" edge="1"><mxGeometry relative="1" as="geometry"><mxPoint x="195" y="205" as="targetPoint"/><Array as="points"><mxPoint x="200" y="310"/><mxPoint x="230" y="290"/><mxPoint x="150" y="290"/><mxPoint x="190" y="280"/></Array></mxGeometry></mxCell><mxCell id="MQJ6rmpYpWd7qsKzw6Yk-1" value="o:ObjectView" style="shape=umlLifeline;perimeter=lifelinePerimeter;whiteSpace=wrap;html=1;container=0;dropTarget=0;collapsible=0;recursiveResize=0;outlineConnect=0;portConstraint=eastwest;newEdgeStyle={&quot;edgeStyle&quot;:&quot;elbowEdgeStyle&quot;,&quot;elbow&quot;:&quot;vertical&quot;,&quot;curved&quot;:0,&quot;rounded&quot;:0};" parent="1" vertex="1"><mxGeometry x="430" y="40" width="100" height="300" as="geometry"/></mxCell><mxCell id="MQJ6rmpYpWd7qsKzw6Yk-2" value="" style="html=1;points=[];perimeter=orthogonalPerimeter;outlineConnect=0;targetShapes=umlLifeline;portConstraint=eastwest;newEdgeStyle={&quot;edgeStyle&quot;:&quot;elbowEdgeStyle&quot;,&quot;elbow&quot;:&quot;vertical&quot;,&quot;curved&quot;:0,&quot;rounded&quot;:0};" parent="MQJ6rmpYpWd7qsKzw6Yk-1" vertex="1"><mxGeometry x="45" y="80" width="10" height="200" as="geometry"/></mxCell><mxCell id="MQJ6rmpYpWd7qsKzw6Yk-3" value="loop" style="shape=umlFrame;whiteSpace=wrap;html=1;pointerEvents=0;" parent="1" vertex="1"><mxGeometry x="130" y="130" width="370" height="150" as="geometry"/></mxCell><mxCell id="MQJ6rmpYpWd7qsKzw6Yk-4" value="" style="html=1;verticalAlign=bottom;endArrow=open;dashed=1;endSize=8;edgeStyle=elbowEdgeStyle;elbow=vertical;curved=0;rounded=0;" parent="1" target="aM9ryv3xv72pqoxQDRHE-5" edge="1"><mxGeometry relative="1" as="geometry"><mxPoint x="310" y="290" as="targetPoint"/><Array as="points"><mxPoint x="390" y="270"/><mxPoint x="420" y="260"/><mxPoint x="445" y="290"/><mxPoint x="365" y="290"/><mxPoint x="405" y="280"/></Array><mxPoint x="480" y="270" as="sourcePoint"/></mxGeometry></mxCell><mxCell id="MQJ6rmpYpWd7qsKzw6Yk-5" value="update" style="html=1;verticalAlign=bottom;endArrow=block;edgeStyle=elbowEdgeStyle;elbow=vertical;curved=0;rounded=0;" parent="1" target="MQJ6rmpYpWd7qsKzw6Yk-2" edge="1"><mxGeometry relative="1" as="geometry"><mxPoint x="270" y="180" as="sourcePoint"/><Array as="points"><mxPoint x="355" y="180"/></Array><mxPoint x="440" y="180" as="targetPoint"/></mxGeometry></mxCell><mxCell id="MQJ6rmpYpWd7qsKzw6Yk-6" value="[foreach o in mapObject]" style="text;html=1;strokeColor=none;fillColor=none;align=center;verticalAlign=middle;whiteSpace=wrap;rounded=0;" parent="1" vertex="1"><mxGeometry x="140" y="200" width="110" height="30" as="geometry"/></mxCell><mxCell id="MQJ6rmpYpWd7qsKzw6Yk-7" value="callallupdate" style="shape=umlFrame;whiteSpace=wrap;html=1;pointerEvents=0;width=110;height=30;" parent="1" vertex="1"><mxGeometry x="-35" width="610" height="350" as="geometry"/></mxCell><mxCell id="_l2FWwhdxEuEMJpnE1Px-1" value="User" style="shape=umlActor;verticalLabelPosition=bottom;verticalAlign=top;html=1;outlineConnect=0;" parent="1" vertex="1"><mxGeometry x="-20" y="40" width="30" height="60" as="geometry"/></mxCell><mxCell id="2" value="" style="html=1;verticalAlign=bottom;endArrow=open;dashed=1;endSize=8;edgeStyle=elbowEdgeStyle;elbow=vertical;curved=0;rounded=0;" edge="1" parent="1"><mxGeometry relative="1" as="geometry"><mxPoint y="320" as="targetPoint"/><Array as="points"><mxPoint x="25" y="320"/><mxPoint x="55" y="300"/><mxPoint x="-25" y="300"/><mxPoint x="15" y="290"/></Array><mxPoint x="90" y="320" as="sourcePoint"/></mxGeometry></mxCell></root></mxGraphModel></diagram></mxfile>